<?xml version='1.0' encoding='UTF-8' standalone='no'?>
<svg xmlns:xlink="http://www.w3.org/1999/xlink" height="899pt" width="1707pt" xmlns="http://www.w3.org/2000/svg" viewBox="0 0 1707 899">
 <title>Figure 1</title>
 <desc>
Creator: GL2PS 1.4.2, (C) 1999-2020 C. Geuzaine
For: Octave
CreationDate: Mon Jun 13 01:56:51 2022
</desc>
 <defs/>
 <polygon points="0,0 1707,0 1707,899 0,899" fill="#ffffff"/>
 <g>
  <polygon points="0,899 1707,899 1707,0 0,0" fill="#ffffff" shape-rendering="crispEdges"/>
  <clipPath id="cp001707899">
   <polygon points="0,899 1707,899 1707,0 0,0"/>
  </clipPath>
  <g clip-path="url(#cp001707899)">
   <polygon points="221.918,800.395 1544.89,800.395 1544.89,67.449 221.918,67.449" fill="#ffffff" shape-rendering="crispEdges"/>
   <polyline points="221.918,800.395 221.918,787.166" fill="none" stroke-width="0.5" stroke="#262626" stroke-linejoin="miter" stroke-linecap="butt"/>
   <polyline points="221.918,67.449 221.918,80.6777" fill="none" stroke-width="0.5" stroke="#262626" stroke-linejoin="miter" stroke-linecap="butt"/>
   <polyline points="486.513,800.395 486.513,787.166" fill="none" stroke-width="0.5" stroke="#262626" stroke-linejoin="miter" stroke-linecap="butt"/>
   <polyline points="486.513,67.449 486.513,80.6777" fill="none" stroke-width="0.5" stroke="#262626" stroke-linejoin="miter" stroke-linecap="butt"/>
   <polyline points="751.108,800.395 751.108,787.166" fill="none" stroke-width="0.5" stroke="#262626" stroke-linejoin="miter" stroke-linecap="butt"/>
   <polyline points="751.108,67.449 751.108,80.6777" fill="none" stroke-width="0.5" stroke="#262626" stroke-linejoin="miter" stroke-linecap="butt"/>
   <polyline points="1015.7,800.395 1015.7,787.166" fill="none" stroke-width="0.5" stroke="#262626" stroke-linejoin="miter" stroke-linecap="butt"/>
   <polyline points="1015.7,67.449 1015.7,80.6777" fill="none" stroke-width="0.5" stroke="#262626" stroke-linejoin="miter" stroke-linecap="butt"/>
   <polyline points="1280.3,800.395 1280.3,787.166" fill="none" stroke-width="0.5" stroke="#262626" stroke-linejoin="miter" stroke-linecap="butt"/>
   <polyline points="1280.3,67.449 1280.3,80.6777" fill="none" stroke-width="0.5" stroke="#262626" stroke-linejoin="miter" stroke-linecap="butt"/>
   <polyline points="1544.89,800.395 1544.89,787.166" fill="none" stroke-width="0.5" stroke="#262626" stroke-linejoin="miter" stroke-linecap="butt"/>
   <polyline points="1544.89,67.449 1544.89,80.6777" fill="none" stroke-width="0.5" stroke="#262626" stroke-linejoin="miter" stroke-linecap="butt"/>
   <g font-size="10" xml:space="preserve" transform="translate(218.918,815.894) rotate(-0,3,-8)" font-style="normal" font-family="FreeSans" font-weight="normal">
    <text fill="rgb(38,38,38)" y="-0" x="0 ">0</text>
   </g>
   <g font-size="10" xml:space="preserve" transform="translate(483.513,815.894) rotate(-0,3,-8)" font-style="normal" font-family="FreeSans" font-weight="normal">
    <text fill="rgb(38,38,38)" y="-0" x="0 ">5</text>
   </g>
   <g font-size="10" xml:space="preserve" transform="translate(745.108,815.894) rotate(-0,6,-8)" font-style="normal" font-family="FreeSans" font-weight="normal">
    <text fill="rgb(38,38,38)" y="-0" x="0 6 ">10</text>
   </g>
   <g font-size="10" xml:space="preserve" transform="translate(1009.7,815.894) rotate(-0,6,-8)" font-style="normal" font-family="FreeSans" font-weight="normal">
    <text fill="rgb(38,38,38)" y="-0" x="0 6 ">15</text>
   </g>
   <g font-size="10" xml:space="preserve" transform="translate(1274.3,815.894) rotate(-0,6,-8)" font-style="normal" font-family="FreeSans" font-weight="normal">
    <text fill="rgb(38,38,38)" y="-0" x="0 6 ">20</text>
   </g>
   <g font-size="10" xml:space="preserve" transform="translate(1538.89,815.894) rotate(-0,6,-8)" font-style="normal" font-family="FreeSans" font-weight="normal">
    <text fill="rgb(38,38,38)" y="-0" x="0 6 ">25</text>
   </g>
   <polyline points="221.918,800.395 235.148,800.395" fill="none" stroke-width="0.5" stroke="#262626" stroke-linejoin="miter" stroke-linecap="butt"/>
   <polyline points="1544.89,800.395 1531.66,800.395" fill="none" stroke-width="0.5" stroke="#262626" stroke-linejoin="miter" stroke-linecap="butt"/>
   <polyline points="221.918,617.158 235.148,617.158" fill="none" stroke-width="0.5" stroke="#262626" stroke-linejoin="miter" stroke-linecap="butt"/>
   <polyline points="1544.89,617.158 1531.66,617.158" fill="none" stroke-width="0.5" stroke="#262626" stroke-linejoin="miter" stroke-linecap="butt"/>
   <polyline points="221.918,433.922 235.148,433.922" fill="none" stroke-width="0.5" stroke="#262626" stroke-linejoin="miter" stroke-linecap="butt"/>
   <polyline points="1544.89,433.922 1531.66,433.922" fill="none" stroke-width="0.5" stroke="#262626" stroke-linejoin="miter" stroke-linecap="butt"/>
   <polyline points="221.918,250.685 235.148,250.685" fill="none" stroke-width="0.5" stroke="#262626" stroke-linejoin="miter" stroke-linecap="butt"/>
   <polyline points="1544.89,250.685 1531.66,250.685" fill="none" stroke-width="0.5" stroke="#262626" stroke-linejoin="miter" stroke-linecap="butt"/>
   <polyline points="221.918,67.449 235.148,67.449" fill="none" stroke-width="0.5" stroke="#262626" stroke-linejoin="miter" stroke-linecap="butt"/>
   <polyline points="1544.89,67.449 1531.66,67.449" fill="none" stroke-width="0.5" stroke="#262626" stroke-linejoin="miter" stroke-linecap="butt"/>
   <g font-size="10" xml:space="preserve" transform="translate(192.918,804.395) rotate(-0,24,-4)" font-style="normal" font-family="FreeSans" font-weight="normal">
    <text fill="rgb(38,38,38)" y="-0" x="0 3 9 12 18 ">-0.02</text>
   </g>
   <g font-size="10" xml:space="preserve" transform="translate(192.918,621.158) rotate(-0,24,-4)" font-style="normal" font-family="FreeSans" font-weight="normal">
    <text fill="rgb(38,38,38)" y="-0" x="0 3 9 12 18 ">-0.01</text>
   </g>
   <g font-size="10" xml:space="preserve" transform="translate(210.918,437.922) rotate(-0,6,-4)" font-style="normal" font-family="FreeSans" font-weight="normal">
    <text fill="rgb(38,38,38)" y="-0" x="0 ">0</text>
   </g>
   <g font-size="10" xml:space="preserve" transform="translate(195.918,254.685) rotate(-0,21,-4)" font-style="normal" font-family="FreeSans" font-weight="normal">
    <text fill="rgb(38,38,38)" y="-0" x="0 6 9 15 ">0.01</text>
   </g>
   <g font-size="10" xml:space="preserve" transform="translate(195.918,71.449) rotate(-0,21,-4)" font-style="normal" font-family="FreeSans" font-weight="normal">
    <text fill="rgb(38,38,38)" y="-0" x="0 6 9 15 ">0.02</text>
   </g>
   <polyline points="221.918,800.395 1544.89,800.395" fill="none" stroke-width="0.5" stroke="#262626" stroke-dasharray="16,0" stroke-linejoin="miter" stroke-linecap="square"/>
   <polyline points="221.918,67.449 1544.89,67.449" fill="none" stroke-width="0.5" stroke="#262626" stroke-dasharray="16,0" stroke-linejoin="miter" stroke-linecap="square"/>
   <polyline points="221.918,800.395 221.918,67.449" fill="none" stroke-width="0.5" stroke="#262626" stroke-dasharray="16,0" stroke-linejoin="miter" stroke-linecap="square"/>
   <polyline points="1544.89,800.395 1544.89,67.449" fill="none" stroke-width="0.5" stroke="#262626" stroke-dasharray="16,0" stroke-linejoin="miter" stroke-linecap="square"/>
   <polyline points="221.918,433.922 222.447,394.594 222.977,355.95 223.506,318.654 224.035,283.323 224.564,250.513 225.093,220.697 225.622,194.254 226.152,171.461 226.681,152.482 227.21,137.369 227.739,126.067 228.268,118.417 228.798,114.171 229.327,112.999 229.856,114.513 230.385,118.276 230.914,123.829 231.444,130.703 231.973,138.438 232.502,146.601 233.031,154.798 233.56,162.685 234.09,169.979 234.619,176.458 235.148,181.97 235.677,186.423 236.206,189.79 236.735,192.095 237.265,193.412 237.794,193.848 238.323,193.538 238.852,192.634 239.381,191.293 239.911,189.666 240.44,187.894 240.969,186.102 241.498,184.389 242.027,182.829 242.557,181.471 243.086,180.336 243.615,179.422 244.144,178.707 244.673,178.155 245.203,177.717 245.732,177.339 246.261,176.966 246.79,176.548 247.319,176.043 247.849,175.417 248.378,174.652 248.907,173.74 249.436,172.689 249.965,171.516 250.494,170.249 251.024,168.925 251.553,167.584 252.082,166.267 252.611,165.016 253.14,163.865 253.67,162.845 254.199,161.979 254.728,161.278 255.257,160.746 255.786,160.379 256.315,160.163 256.845,160.08 257.374,160.104 257.903,160.21 258.432,160.371 258.961,160.563 259.491,160.764 260.02,160.957 260.549,161.133 261.078,161.287 261.607,161.423 262.137,161.549 262.666,161.679 263.195,161.832 263.724,162.028 264.253,162.288 264.783,162.634 265.312,163.083 265.841,163.653 266.37,164.353 266.899,165.191 267.428,166.167 267.958,167.278 268.487,168.517 269.016,169.87 269.545,171.326 270.074,172.868 270.604,174.48 271.133,176.151 271.662,177.866 272.191,179.618 272.72,181.401 273.25,183.216 273.779,185.064 274.308,186.952 274.837,188.89 275.366,190.89 275.896,192.965 276.425,195.127 276.954,197.389 277.483,199.762 278.012,202.252 278.542,204.864 279.071,207.598 279.6,210.45 280.129,213.414 280.658,216.48 281.187,219.633 281.717,222.859 282.246,226.143 282.775,229.469 283.304,232.822 283.833,236.191 284.363,239.565 284.892,242.938 285.421,246.307 285.95,249.673 286.479,253.04 287.008,256.415 287.538,259.806 288.067,263.227 288.596,266.688 289.125,270.202 289.654,273.78 290.184,277.432 290.713,281.165 291.242,284.985 291.771,288.894 292.3,292.892 292.83,296.974 293.359,301.134 293.888,305.365 294.417,309.658 294.946,314 295.476,318.383 296.005,322.794 296.534,327.225 297.063,331.667 297.592,336.111 298.121,340.554 298.651,344.992 299.18,349.422 299.709,353.844 300.238,358.258 300.767,362.665 301.297,367.068 301.826,371.469 302.355,375.87 302.884,380.272 303.413,384.676 303.943,389.084 304.472,393.496 305.001,397.911 305.53,402.331 306.059,406.753 306.589,411.179 307.118,415.608 307.647,420.042 308.176,424.481 308.705,428.928 309.234,433.383 309.764,437.85 310.293,442.33 310.822,446.825 311.351,451.335 311.88,455.859 312.41,460.397 312.939,464.945 313.468,469.497 313.997,474.046 314.526,478.585 315.056,483.103 315.585,487.591 316.114,492.036 316.643,496.43 317.172,500.761 317.701,505.021 318.231,509.204 318.76,513.307 319.289,517.327 319.818,521.267 320.347,525.132 320.877,528.928 321.406,532.665 321.935,536.354 322.464,540.007 322.993,543.637 323.523,547.254 324.052,550.869 324.581,554.489 325.11,558.118 325.639,561.758 326.169,565.406 326.698,569.057 327.227,572.7 327.756,576.325 328.285,579.917 328.815,583.46 329.344,586.938 329.873,590.338 330.402,593.644 330.931,596.847 331.46,599.939 331.99,602.915 332.519,605.775 333.048,608.523 333.577,611.165 334.106,613.711 334.636,616.174 335.165,618.567 335.694,620.901 336.223,623.19 336.752,625.443 337.282,627.668 337.811,629.867 338.34,632.042 338.869,634.186 339.398,636.292 339.927,638.349 340.457,640.343 340.986,642.258 341.515,644.08 342.044,645.793 342.573,647.387 343.103,648.852 343.632,650.185 344.161,651.384 344.69,652.457 345.219,653.413 345.749,654.268 346.278,655.039 346.807,655.747 347.336,656.414 347.865,657.061 348.395,657.705 348.924,658.362 349.453,659.041 349.982,659.747 350.511,660.475 351.04,661.218 351.57,661.96 352.099,662.679 352.628,663.352 353.157,663.951 353.686,664.451 354.216,664.827 354.745,665.059 355.274,665.132 355.803,665.04 356.332,664.785 356.862,664.378 357.391,663.841 357.92,663.201 358.449,662.493 358.978,661.759 359.507,661.039 360.037,660.373 360.566,659.8 361.095,659.347 361.624,659.036 362.153,658.875 362.683,658.858 363.212,658.969 363.741,659.177 364.27,659.441 364.799,659.71 365.329,659.932 365.858,660.05 366.387,660.017 366.916,659.792 367.445,659.35 367.975,658.687 368.504,657.82 369.033,656.792 369.562,655.675 370.091,654.564 370.62,653.578 371.15,652.856 371.679,652.55 372.208,652.815 372.737,653.805 373.266,655.657 373.796,658.485 374.325,662.368 374.854,667.338 375.383,673.377 375.912,680.404 376.442,688.276 376.971,696.783 377.5,705.65 378.029,714.543 378.558,723.075 379.087,730.818 379.617,737.316 380.146,742.101 380.675,744.708 381.204,744.698 381.733,741.673 382.263,735.293 382.792,725.295 383.321,711.505 383.85,693.851 384.379,672.368 384.909,647.203 385.438,618.614 385.967,586.963 386.496,552.711 387.025,516.401 387.555,478.641 388.084,440.09 388.613,401.429 389.142,363.344 389.671,326.503 390.201,291.533 390.73,259 391.259,229.391 391.788,203.102 392.317,180.425 392.846,161.542 393.376,146.525 393.905,135.333 394.434,127.825 394.963,123.764 395.492,122.835 396.022,124.655 396.551,128.795 397.08,134.798 397.609,142.195 398.138,150.524 398.668,159.346 399.197,168.26 399.726,176.915 400.255,185.015 400.784,192.33 401.313,198.695 401.843,204.011 402.372,208.239 402.901,211.396 403.43,213.548 403.959,214.799 404.489,215.279 405.018,215.138 405.547,214.532 406.076,213.614 406.605,212.529 407.135,211.402 407.664,210.337 408.193,209.413 408.722,208.682 409.251,208.169 409.78,207.877 410.31,207.786 410.839,207.861 411.368,208.055 411.897,208.315 412.426,208.586 412.956,208.817 413.485,208.963 414.014,208.99 414.543,208.875 415.072,208.612 415.602,208.203 416.131,207.665 416.66,207.025 417.189,206.318 417.718,205.583 418.248,204.863 418.777,204.198 419.306,203.624 419.835,203.173 420.364,202.868 420.893,202.723 421.423,202.744 421.952,202.926 422.481,203.258 423.01,203.721 423.539,204.292 424.069,204.944 424.598,205.651 425.127,206.388 425.656,207.133 426.185,207.867 426.715,208.581 427.244,209.268 427.773,209.932 428.302,210.579 428.831,211.222 429.361,211.881 429.89,212.573 430.419,213.322 430.948,214.148 431.477,215.07 432.006,216.104 432.536,217.263 433.065,218.553 433.594,219.976 434.123,221.529 434.652,223.206 435.182,224.995 435.711,226.882 436.24,228.852 436.769,230.891 437.298,232.983 437.828,235.116 438.357,237.281 438.886,239.473 439.415,241.689 439.944,243.933 440.474,246.209 441.003,248.528 441.532,250.9 442.061,253.339 442.59,255.858 443.119,258.469 443.649,261.182 444.178,264.005 444.707,266.944 445.236,269.999 445.765,273.167 446.295,276.442 446.824,279.813 447.353,283.268 447.882,286.793 448.411,290.371 448.941,293.986 449.47,297.625 449.999,301.275 450.528,304.925 451.057,308.568 451.586,312.2 452.116,315.823 452.645,319.438 453.174,323.054 453.703,326.678 454.232,330.323 454.762,333.999 455.291,337.72 455.82,341.496 456.349,345.338 456.878,349.253 457.408,353.247 457.937,357.324 458.466,361.482 458.995,365.718 459.524,370.028 460.054,374.402 460.583,378.832 461.112,383.307 461.641,387.817 462.17,392.35 462.699,396.898 463.229,401.449 463.758,405.999 464.287,410.54 464.816,415.07 465.345,419.584 465.875,424.084 466.404,428.568 466.933,433.039 467.462,437.498 467.991,441.947 468.521,446.388 469.05,450.824 469.579,455.254 470.108,459.681 470.637,464.105 471.167,468.525 471.696,472.942 472.225,477.355 472.754,481.764 473.283,486.17 473.812,490.572 474.342,494.973 474.871,499.374 475.4,503.776 475.929,508.182 476.458,512.594 476.988,517.013 477.517,521.44 478.046,525.875 478.575,530.317 479.104,534.762 479.634,539.205 480.163,543.64 480.692,548.058 481.221,552.451 481.75,556.808 482.279,561.117 482.809,565.369 483.338,569.553 483.867,573.661 484.396,577.686 484.925,581.623 485.455,585.471 485.984,589.232 486.513,592.909 487.042,596.51 487.571,600.043 488.101,603.519 488.63,606.952 489.159,610.351 489.688,613.73 490.217,617.099 490.747,620.464 491.276,623.832 491.805,627.204 492.334,630.578 492.863,633.95 493.392,637.309 493.922,640.645 494.451,643.944 494.98,647.19 495.509,650.369 496.038,653.463 496.568,656.461 497.097,659.35 497.626,662.123 498.155,664.773 498.684,667.302 499.214,669.711 499.743,672.008 500.272,674.2 500.801,676.301 501.33,678.324 501.859,680.28 502.389,682.183 502.918,684.043 503.447,685.868 503.976,687.661 504.505,689.424 505.035,691.151 505.564,692.837 506.093,694.47 506.622,696.036 507.151,697.52 507.681,698.908 508.21,700.184 508.739,701.337 509.268,702.357 509.797,703.239 510.327,703.982 510.856,704.593 511.385,705.079 511.914,705.456 512.443,705.741 512.972,705.955 513.502,706.119 514.031,706.255 514.56,706.38 515.089,706.512 515.618,706.66 516.148,706.829 516.677,707.017 517.206,707.217 517.735,707.414 518.264,707.587 518.794,707.714 519.323,707.767 519.852,707.72 520.381,707.549 520.91,707.232 521.44,706.754 521.969,706.107 522.498,705.292 523.027,704.319 523.556,703.207 524.085,701.984 524.615,700.684 525.144,699.346 525.673,698.012 526.202,696.723 526.731,695.517 527.261,694.424 527.79,693.466 528.319,692.654 528.848,691.986 529.377,691.445 529.907,691.004 530.436,690.622 530.965,690.251 531.494,689.838 532.023,689.328 532.552,688.67 533.082,687.823 533.611,686.759 534.14,685.471 534.669,683.971 535.198,682.3 535.728,680.523 536.257,678.733 536.786,677.046 537.315,675.597 537.844,674.536 538.374,674.021 538.903,674.204 539.432,675.227 539.961,677.207 540.49,680.231 541.02,684.338 541.549,689.519 542.078,695.704 542.607,702.759 543.136,710.485 543.665,718.618 544.195,726.832 544.724,734.749 545.253,741.946 545.782,747.97 546.311,752.355 546.841,754.634 547.37,754.362 547.899,751.134 548.428,744.6 548.957,734.483 549.487,720.595 550.016,702.847 550.545,681.256 551.074,655.951 551.603,627.174 552.133,595.27 552.662,560.685 553.191,523.951 553.72,485.666 554.249,446.482 554.778,407.079 555.308,368.144 555.837,330.349 556.366,294.328 556.895,260.66 557.424,229.844 557.954,202.292 558.483,178.313 559.012,158.108 559.541,141.764 560.07,129.261 560.6,120.471 561.129,115.173 561.658,113.061 562.187,113.765 562.716,116.861 563.245,121.895 563.775,128.399 564.304,135.908 564.833,143.979 565.362,152.205 565.891,160.225 566.421,167.735 566.95,174.494 567.479,180.326 568.008,185.122 568.537,188.835 569.067,191.472 569.596,193.094 570.125,193.796 570.654,193.709 571.183,192.977 571.713,191.758 572.242,190.206 572.771,188.466 573.3,186.669 573.829,184.921 574.359,183.306 574.888,181.88 575.417,180.673 575.946,179.69 576.475,178.915 577.004,178.316 577.534,177.847 578.063,177.456 578.592,177.087 579.121,176.689 579.65,176.216 580.18,175.631 580.709,174.912 581.238,174.047 581.767,173.038 582.296,171.901 582.826,170.661 583.355,169.351 583.884,168.011 584.413,166.682 584.942,165.405 585.471,164.219 586.001,163.154 586.53,162.237 587.059,161.483 587.588,160.897 588.117,160.479 588.647,160.217 589.176,160.093 589.705,160.086 590.234,160.169 590.763,160.316 591.293,160.5 591.822,160.7 592.351,160.897 592.88,161.079 593.409,161.24 593.938,161.381 594.468,161.509 594.997,161.636 595.526,161.78 596.055,161.96 596.584,162.197 597.114,162.513 597.643,162.928 598.172,163.458 598.701,164.116 599.23,164.909 599.76,165.841 600.289,166.91 600.818,168.109 601.347,169.427 601.876,170.852 602.406,172.368 602.935,173.96 603.464,175.613 603.993,177.315 604.522,179.056 605.051,180.83 605.581,182.635 606.11,184.471 606.639,186.346 607.168,188.267 607.697,190.246 608.227,192.295 608.756,194.428 609.285,196.657 609.814,198.994 610.343,201.445 610.873,204.018 611.402,206.714 611.931,209.529 612.46,212.459 612.989,215.493 613.519,218.62 614.048,221.824 614.577,225.092 615.106,228.406 615.635,231.752 616.164,235.117 616.694,238.49 617.223,241.864 617.752,245.235 618.281,248.601 618.81,251.967 619.34,255.338 619.869,258.723 620.398,262.134 620.927,265.58 621.456,269.076 621.986,272.633 622.515,276.26 623.044,279.967 623.573,283.759 624.102,287.64 624.631,291.609 625.161,295.664 625.69,299.801 626.219,304.01 626.748,308.284 627.277,312.612 627.807,316.983 628.336,321.387 628.865,325.812 629.394,330.251 629.923,334.695 630.453,339.14 630.982,343.579 631.511,348.012 632.04,352.436 632.569,356.852 633.099,361.262 633.628,365.666 634.157,370.068 634.686,374.468 635.215,378.869 635.745,383.273 636.274,387.68 636.803,392.09 637.332,396.505 637.861,400.923 638.39,405.344 638.92,409.769 639.449,414.197 639.978,418.629 640.507,423.067 641.036,427.511 641.566,431.963 642.095,436.426 642.624,440.902 643.153,445.391 643.682,449.896 644.212,454.417 644.741,458.951 645.27,463.495 645.799,468.046 646.328,472.598 646.857,477.141 647.387,481.667 647.916,486.165 648.445,490.625 648.974,495.036 649.503,499.388 650.033,503.672 650.562,507.88 651.091,512.009 651.62,516.056 652.149,520.021 652.679,523.909 653.208,527.726 653.737,531.48 654.266,535.183 654.795,538.847 655.325,542.483 655.854,546.103 656.383,549.717 656.912,553.335 657.441,556.961 657.97,560.597 658.5,564.243 659.029,567.894 659.558,571.541 660.087,575.173 660.616,578.777 661.146,582.337 661.675,585.838 662.204,589.264 662.733,592.602 663.262,595.839 663.792,598.967 664.321,601.98 664.85,604.876 665.379,607.659 665.908,610.334 666.437,612.91 666.967,615.398 667.496,617.812 668.025,620.163 668.554,622.465 669.083,624.729 669.613,626.962 670.142,629.169 670.671,631.352 671.2,633.506 671.729,635.626 672.259,637.7 672.788,639.715 673.317,641.657 673.846,643.51 674.375,645.26 674.905,646.893 675.434,648.4 675.963,649.775 676.492,651.016 677.021,652.129 677.55,653.121 678.08,654.006 678.609,654.801 679.138,655.527 679.667,656.205 680.196,656.856 680.726,657.499 681.255,658.15 681.784,658.822 682.313,659.519 682.842,660.241 683.372,660.981 683.901,661.725 684.43,662.454 684.959,663.144 685.488,663.77 686.018,664.305 686.547,664.722 687.076,665.002 687.605,665.126 688.134,665.087 688.663,664.883 689.193,664.523 689.722,664.024 690.251,663.413 690.78,662.724 691.309,661.993 691.839,661.264 692.368,660.577 692.897,659.97 693.426,659.477 693.955,659.119 694.484,658.91 695.014,658.849 695.543,658.922 696.072,659.103 696.601,659.354 697.13,659.627 697.66,659.87 698.189,660.027 698.718,660.047 699.247,659.886 699.776,659.515 700.306,658.921 700.835,658.116 701.364,657.133 701.893,656.035 702.422,654.91 702.952,653.87 703.481,653.048 704.01,652.593 704.539,652.659 705.068,653.402 705.598,654.966 706.127,657.473 706.656,661.014 707.185,665.637 707.714,671.341 708.243,678.066 708.773,685.689 709.302,694.02 709.831,702.806 710.36,711.73 710.889,720.422 711.419,728.465 711.948,735.41 712.477,740.791 713.006,744.141 713.535,745.011 714.065,742.986 714.594,737.707 715.123,728.884 715.652,716.315 716.181,699.894 716.711,679.62 717.24,655.605 717.769,628.072 718.298,597.351 718.827,563.872 719.356,528.154 719.886,490.787 720.415,452.414 720.944,413.713 721.473,375.371 722.002,338.064 722.532,302.433 723.061,269.067 723.59,238.479 724.119,211.096 724.648,187.243 725.177,167.139 725.707,150.889 726.236,138.489 726.765,129.829 727.294,124.701 727.823,122.813 728.353,123.802 728.882,127.252 729.411,132.712 729.94,139.716 730.469,147.797 730.999,156.508 731.528,165.434 732.057,174.206 732.586,182.51 733.115,190.097 733.645,196.778 734.174,202.435 734.703,207.01 735.232,210.504 735.761,212.966 736.291,214.491 736.82,215.201 737.349,215.241 737.878,214.766 738.407,213.931 738.936,212.885 739.466,211.758 739.995,210.664 740.524,209.688 741.053,208.891 741.582,208.308 742.112,207.947 742.641,207.795 743.17,207.822 743.699,207.984 744.228,208.229 744.758,208.502 745.287,208.751 745.816,208.928 746.345,208.995 746.874,208.928 747.404,208.712 747.933,208.348 748.462,207.849 748.991,207.238 749.52,206.548 750.049,205.818 750.579,205.089 751.108,204.401 751.637,203.795 752.166,203.302 752.695,202.948 753.225,202.751 753.754,202.719 754.283,202.851 754.812,203.137 755.341,203.561 755.87,204.1 756.4,204.729 756.929,205.422 757.458,206.152 757.987,206.896 758.516,207.635 759.046,208.356 759.575,209.052 760.104,209.723 760.633,210.374 761.162,211.017 761.692,211.668 762.221,212.348 762.75,213.076 763.279,213.875 763.808,214.765 764.338,215.762 764.867,216.88 765.396,218.127 765.925,219.508 766.454,221.021 766.984,222.659 767.513,224.414 768.042,226.271 768.571,228.217 769.1,230.235 769.629,232.311 770.159,234.432 770.688,236.588 771.217,238.772 771.746,240.98 772.275,243.215 772.805,245.48 773.334,247.784 773.863,250.138 774.392,252.554 774.921,255.046 775.451,257.626 775.98,260.306 776.509,263.094 777.038,265.996 777.567,269.014 778.096,272.146 778.626,275.388 779.155,278.73 779.684,282.16 780.213,285.664 780.742,289.226 781.272,292.831 781.801,296.465 782.33,300.112 782.859,303.763 783.388,307.408 783.918,311.044 784.447,314.67 784.976,318.287 785.505,321.902 786.034,325.522 786.563,329.159 787.093,332.824 787.622,336.529 788.151,340.286 788.68,344.106 789.209,347.997 789.739,351.966 790.268,356.016 790.797,360.149 791.326,364.361 791.855,368.647 792.385,373.002 792.914,377.416 793.443,381.878 793.972,386.378 794.501,390.904 795.031,395.448 795.56,400 796.089,404.551 796.618,409.095 797.147,413.628 797.677,418.148 798.206,422.652 798.735,427.141 799.264,431.616 799.793,436.079 800.322,440.531 800.852,444.974 801.381,449.411 801.91,453.844 802.439,458.272 802.968,462.696 803.498,467.117 804.027,471.535 804.556,475.95 805.085,480.36 805.614,484.767 806.144,489.17 806.673,493.571 807.202,497.972 807.731,502.373 808.26,506.778 808.789,511.188 809.319,515.604 809.848,520.029 810.377,524.462 810.906,528.901 811.435,533.346 811.965,537.79 812.494,542.228 813.023,546.653 813.552,551.055 814.081,555.425 814.611,559.75 815.14,564.022 815.669,568.228 816.198,572.361 816.727,576.413 817.257,580.378 817.786,584.255 818.315,588.043 818.844,591.746 819.373,595.371 819.902,598.924 820.432,602.417 820.961,605.862 821.49,609.271 822.019,612.656 822.548,616.026 823.078,619.392 823.607,622.759 824.136,626.13 824.665,629.503 825.194,632.877 825.724,636.241 826.253,639.586 826.782,642.898 827.311,646.163 827.84,649.365 828.37,652.488 828.899,655.517 829.428,658.442 829.957,661.253 830.486,663.942 831.015,666.51 831.545,668.957 832.074,671.288 832.603,673.512 833.132,675.641 833.661,677.687 834.191,679.663 834.72,681.582 835.249,683.455 835.778,685.29 836.307,687.093 836.837,688.866 837.366,690.605 837.895,692.305 838.424,693.956 838.953,695.545 839.482,697.057 840.012,698.477 840.541,699.791 841.07,700.984 841.599,702.047 842.128,702.973 842.658,703.76 843.187,704.412 843.716,704.937 844.245,705.347 844.774,705.659 845.304,705.893 845.833,706.071 846.362,706.213 846.891,706.34 847.42,706.469 847.95,706.61 848.479,706.772 849.008,706.955 849.537,707.153 850.066,707.352 850.595,707.536 851.125,707.68 851.654,707.76 852.183,707.748 852.712,707.619 853.241,707.35 853.771,706.924 854.3,706.331 854.829,705.569 855.358,704.645 855.887,703.575 856.417,702.384 856.946,701.104 857.475,699.774 858.004,698.434 858.533,697.126 859.062,695.89 859.592,694.758 860.121,693.756 860.65,692.897 861.179,692.184 861.708,691.605 862.238,691.136 862.767,690.74 863.296,690.372 863.825,689.978 864.354,689.504 864.884,688.898 865.413,688.115 865.942,687.122 866.471,685.905 867,684.47 867.53,682.847 868.059,681.096 868.588,679.298 869.117,677.564 869.646,676.023 870.175,674.823 870.705,674.116 871.234,674.061 871.763,674.802 872.292,676.466 872.821,679.151 873.351,682.912 873.88,687.755 874.409,693.632 874.938,700.428 875.467,707.966 875.997,716.002 876.526,724.229 877.055,732.285 877.584,739.759 878.113,746.207 878.643,751.165 879.172,754.164 879.701,754.751 880.23,752.506 880.759,747.059 881.288,738.108 881.818,725.436 882.347,708.921 882.876,688.545 883.405,664.402 883.934,636.698 884.464,605.746 884.993,571.962 885.522,535.85 886.051,497.99 886.58,459.02 887.11,419.612 887.639,380.454 888.168,342.224 888.697,305.573 889.226,271.097 889.755,239.323 890.285,210.693 890.814,185.549 891.343,164.127 891.872,146.55 892.401,132.832 892.931,122.879 893.46,116.498 893.989,113.409 894.518,113.26 895.047,115.642 895.577,120.11 896.106,126.196 896.635,133.434 897.164,141.373 897.693,149.591 898.223,157.713 898.752,165.414 899.281,172.434 899.81,178.577 900.339,183.711 900.869,187.77 901.398,190.746 901.927,192.682 902.456,193.665 902.985,193.814 903.514,193.271 904.044,192.19 904.573,190.727 905.102,189.032 905.631,187.241 906.16,185.467 906.69,183.802 907.219,182.311 907.748,181.033 908.277,179.979 908.806,179.141 909.336,178.49 909.865,177.986 910.394,177.575 910.923,177.205 911.452,176.822 911.981,176.377 912.511,175.831 913.04,175.156 913.569,174.338 914.098,173.374 914.627,172.276 915.157,171.065 915.686,169.773 916.215,168.438 916.744,167.101 917.273,165.804 917.803,164.585 918.332,163.479 918.861,162.512 919.39,161.705 919.919,161.065 920.448,160.594 920.978,160.284 921.507,160.119 922.036,160.077 922.565,160.135 923.094,160.264 923.624,160.439 924.153,160.636 924.682,160.835 925.211,161.023 925.74,161.191 926.27,161.338 926.799,161.469 927.328,161.595 927.857,161.731 928.386,161.897 928.916,162.114 929.445,162.403 929.974,162.784 930.503,163.276 931.032,163.892 931.562,164.641 932.091,165.529 932.62,166.555 933.149,167.714 933.678,168.995 934.207,170.388 934.737,171.876 935.266,173.445 935.795,175.081 936.324,176.768 936.853,178.498 937.383,180.262 937.912,182.056 938.441,183.882 938.97,185.744 939.499,187.649 940.029,189.609 940.558,191.634 941.087,193.739 941.616,195.936 942.145,198.237 942.674,200.651 943.204,203.185 943.733,205.842 944.262,208.62 944.791,211.514 945.32,214.516 945.85,217.615 946.379,220.796 946.908,224.045 947.437,227.346 947.966,230.684 948.496,234.044 949.025,237.415 949.554,240.79 950.083,244.161 950.612,247.529 951.141,250.895 951.671,254.263 952.2,257.643 952.729,261.044 953.258,264.478 953.787,267.957 954.317,271.493 954.846,275.096 955.375,278.777 955.904,282.542 956.433,286.394 956.963,290.335 957.492,294.364 958.021,298.475 958.55,302.662 959.079,306.917 959.609,311.229 960.138,315.587 960.667,319.981 961.196,324.401 961.725,328.836 962.255,333.28 962.784,337.724 963.313,342.166 963.842,346.601 964.371,351.028 964.9,355.446 965.43,359.858 965.959,364.264 966.488,368.666 967.017,373.066 967.546,377.467 968.076,381.87 968.605,386.276 969.134,390.685 969.663,395.098 970.192,399.515 970.722,403.935 971.251,408.359 971.78,412.786 972.309,417.217 972.838,421.653 973.367,426.094 973.897,430.544 974.426,435.003 974.955,439.475 975.484,443.96 976.013,448.46 976.543,452.975 977.072,457.505 977.601,462.047 978.13,466.596 978.659,471.148 979.189,475.695 979.718,480.228 980.247,484.736 980.776,489.21 981.305,493.637 981.834,498.009 982.364,502.315 982.893,506.548 983.422,510.703 983.951,514.776 984.48,518.766 985.01,522.678 985.539,526.517 986.068,530.29 986.597,534.009 987.126,537.683 987.656,541.327 988.185,544.951 988.714,548.566 989.243,552.182 989.772,555.805 990.302,559.438 990.831,563.081 991.36,566.731 991.889,570.38 992.418,574.019 992.948,577.633 993.477,581.209 994.006,584.73 994.535,588.182 995.064,591.549 995.593,594.819 996.123,597.983 996.652,601.032 997.181,603.966 997.71,606.785 998.239,609.493 998.769,612.1 999.298,614.614 999.827,617.05 1000.36,619.42 1000.89,621.737 1001.41,624.012 1001.94,626.254 1002.47,628.469 1003,630.66 1003.53,632.824 1004.06,634.955 1004.59,637.045 1005.12,639.081 1005.65,641.048 1006.18,642.931 1006.71,644.715 1007.24,646.386 1007.76,647.934 1008.29,649.351 1008.82,650.635 1009.35,651.788 1009.88,652.817 1010.41,653.734 1010.94,654.556 1011.47,655.302 1012,655.993 1012.53,656.65 1013.06,657.294 1013.59,657.941 1014.12,658.605 1014.64,659.294 1015.17,660.009 1015.7,660.744 1016.23,661.489 1016.76,662.225 1017.29,662.93 1017.82,663.579 1018.35,664.146 1018.88,664.603 1019.41,664.929 1019.94,665.104 1020.47,665.118 1020.99,664.966 1021.52,664.654 1022.05,664.197 1022.58,663.618 1023.11,662.95 1023.64,662.228 1024.17,661.494 1024.7,660.789 1025.23,660.153 1025.76,659.62 1026.29,659.217 1026.82,658.96 1027.34,658.853 1027.87,658.885 1028.4,659.036 1028.93,659.269 1029.46,659.541 1029.99,659.799 1030.52,659.989 1031.05,660.058 1031.58,659.959 1032.11,659.657 1032.64,659.134 1033.17,658.394 1033.7,657.462 1034.22,656.393 1034.75,655.265 1035.28,654.185 1035.81,653.278 1036.34,652.689 1036.87,652.572 1037.4,653.083 1037.93,654.371 1038.46,656.566 1038.99,659.77 1039.52,664.046 1040.05,669.409 1040.57,675.819 1041.1,683.173 1041.63,691.304 1042.16,699.976 1042.69,708.894 1043.22,717.703 1043.75,726 1044.28,733.345 1044.81,739.276 1045.34,743.323 1045.87,745.029 1046.4,743.968 1046.92,739.761 1047.45,732.093 1047.98,720.734 1048.51,705.545 1049.04,686.491 1049.57,663.649 1050.1,637.206 1050.63,607.458 1051.16,574.805 1051.69,539.74 1052.22,502.83 1052.75,464.706 1053.28,426.035 1053.8,387.504 1054.33,349.795 1054.86,313.564 1055.39,279.416 1055.92,247.893 1056.45,219.448 1056.98,194.442 1057.51,173.127 1058.04,155.645 1058.57,142.026 1059.1,132.193 1059.63,125.968 1060.15,123.084 1060.68,123.199 1061.21,125.913 1061.74,130.783 1062.27,137.346 1062.8,145.134 1063.33,153.691 1063.86,162.591 1064.39,171.448 1064.92,179.932 1065.45,187.771 1065.98,194.757 1066.5,200.749 1067.03,205.671 1067.56,209.506 1068.09,212.289 1068.62,214.1 1069.15,215.055 1069.68,215.292 1070.21,214.963 1070.74,214.227 1071.27,213.232 1071.8,212.118 1072.33,211.003 1072.86,209.982 1073.38,209.123 1073.91,208.47 1074.44,208.038 1074.97,207.822 1075.5,207.796 1076.03,207.92 1076.56,208.145 1077.09,208.415 1077.62,208.677 1078.15,208.882 1078.68,208.988 1079.21,208.965 1079.73,208.797 1080.26,208.479 1080.79,208.021 1081.32,207.443 1081.85,206.774 1082.38,206.052 1082.91,205.318 1083.44,204.613 1083.97,203.977 1084.5,203.445 1085.03,203.044 1085.56,202.796 1086.08,202.712 1086.61,202.792 1087.14,203.03 1087.67,203.412 1088.2,203.917 1088.73,204.521 1089.26,205.196 1089.79,205.917 1090.32,206.659 1090.85,207.401 1091.38,208.129 1091.91,208.833 1092.44,209.512 1092.96,210.168 1093.49,210.812 1094.02,211.459 1094.55,212.127 1095.08,212.838 1095.61,213.612 1096.14,214.471 1096.67,215.432 1097.2,216.51 1097.73,217.716 1098.26,219.054 1098.79,220.525 1099.31,222.124 1099.84,223.843 1100.37,225.669 1100.9,227.588 1101.43,229.585 1101.96,231.644 1102.49,233.753 1103.02,235.898 1103.55,238.074 1104.08,240.274 1104.61,242.5 1105.14,244.755 1105.66,247.045 1106.19,249.382 1106.72,251.777 1107.25,254.244 1107.78,256.794 1108.31,259.441 1108.84,262.193 1109.37,265.059 1109.9,268.04 1110.43,271.136 1110.96,274.344 1111.49,277.655 1112.02,281.058 1112.54,284.54 1113.07,288.086 1113.6,291.679 1114.13,295.305 1114.66,298.949 1115.19,302.6 1115.72,306.248 1116.25,309.887 1116.78,313.516 1117.31,317.135 1117.84,320.75 1118.37,324.368 1118.89,327.998 1119.42,331.653 1119.95,335.344 1120.48,339.083 1121.01,342.882 1121.54,346.75 1122.07,350.693 1122.6,354.717 1123.13,358.824 1123.66,363.01 1124.19,367.274 1124.72,371.608 1125.24,376.004 1125.77,380.452 1126.3,384.941 1126.83,389.46 1127.36,394 1127.89,398.549 1128.42,403.101 1128.95,407.648 1129.48,412.186 1130.01,416.71 1130.54,421.219 1131.07,425.713 1131.6,430.192 1132.12,434.658 1132.65,439.114 1133.18,443.56 1133.71,447.999 1134.24,452.432 1134.77,456.861 1135.3,461.287 1135.83,465.71 1136.36,470.129 1136.89,474.544 1137.42,478.955 1137.95,483.363 1138.47,487.768 1139,492.169 1139.53,496.57 1140.06,500.971 1140.59,505.374 1141.12,509.782 1141.65,514.196 1142.18,518.619 1142.71,523.049 1143.24,527.487 1143.77,531.93 1144.3,536.375 1144.82,540.816 1145.35,545.246 1145.88,549.656 1146.41,554.037 1146.94,558.378 1147.47,562.668 1148,566.896 1148.53,571.053 1149.06,575.131 1149.59,579.125 1150.12,583.03 1150.65,586.846 1151.18,590.576 1151.7,594.224 1152.23,597.799 1152.76,601.311 1153.29,604.77 1153.82,608.189 1154.35,611.579 1154.88,614.953 1155.41,618.32 1155.94,621.686 1156.47,625.055 1157,628.429 1157.53,631.803 1158.05,635.171 1158.58,638.523 1159.11,641.848 1159.64,645.129 1160.17,648.353 1160.7,651.502 1161.23,654.563 1161.76,657.523 1162.29,660.37 1162.82,663.099 1163.35,665.705 1163.88,668.19 1164.4,670.557 1164.93,672.815 1165.46,674.973 1165.99,677.044 1166.52,679.041 1167.05,680.976 1167.58,682.863 1168.11,684.709 1168.64,686.522 1169.17,688.305 1169.7,690.055 1170.23,691.769 1170.76,693.436 1171.28,695.046 1171.81,696.585 1172.34,698.036 1172.87,699.385 1173.4,700.617 1173.93,701.723 1174.46,702.693 1174.99,703.524 1175.52,704.219 1176.05,704.783 1176.58,705.228 1177.11,705.569 1177.63,705.826 1178.16,706.019 1178.69,706.171 1179.22,706.3 1179.75,706.427 1180.28,706.563 1180.81,706.719 1181.34,706.895 1181.87,707.089 1182.4,707.29 1182.93,707.48 1183.46,707.64 1183.98,707.743 1184.51,707.763 1185.04,707.674 1185.57,707.452 1186.1,707.078 1186.63,706.539 1187.16,705.83 1187.69,704.956 1188.22,703.93 1188.75,702.774 1189.28,701.519 1189.81,700.2 1190.34,698.859 1190.86,697.537 1191.39,696.274 1191.92,695.106 1192.45,694.06 1192.98,693.155 1193.51,692.396 1194.04,691.776 1194.57,691.276 1195.1,690.861 1195.63,690.489 1196.16,690.109 1196.69,689.667 1197.21,689.109 1197.74,688.386 1198.27,687.463 1198.8,686.317 1199.33,684.949 1199.86,683.382 1200.39,681.663 1200.92,679.87 1201.45,678.102 1201.98,676.484 1202.51,675.159 1203.04,674.278 1203.56,673.999 1204.09,674.471 1204.62,675.829 1205.15,678.181 1205.68,681.595 1206.21,686.097 1206.74,691.653 1207.27,698.173 1207.8,705.498 1208.33,713.406 1208.86,721.609 1209.39,729.761 1209.92,737.468 1210.44,744.292 1210.97,749.776 1211.5,753.449 1212.03,754.853 1212.56,753.552 1213.09,749.161 1213.62,741.354 1214.15,729.886 1214.68,714.602 1215.21,695.451 1215.74,672.491 1216.27,645.892 1216.79,615.935 1217.32,583.001 1217.85,547.571 1218.38,510.201 1218.91,471.513 1219.44,432.17 1219.97,392.858 1220.5,354.261 1221.03,317.039 1221.56,281.809 1222.09,249.122 1222.62,219.448 1223.15,193.163 1223.67,170.536 1224.2,151.728 1224.73,136.787 1225.26,125.651 1225.79,118.159 1226.32,114.056 1226.85,113.013 1227.38,114.635 1227.91,118.489 1228.44,124.11 1228.97,131.032 1229.5,138.795 1230.02,146.967 1230.55,155.157 1231.08,163.024 1231.61,170.285 1232.14,176.725 1232.67,182.19 1233.2,186.596 1233.73,189.914 1234.26,192.174 1234.79,193.449 1235.32,193.849 1235.85,193.51 1236.37,192.583 1236.9,191.225 1237.43,189.589 1237.96,187.814 1238.49,186.024 1239.02,184.316 1239.55,182.765 1240.08,181.416 1240.61,180.29 1241.14,179.386 1241.67,178.68 1242.2,178.134 1242.73,177.699 1243.25,177.322 1243.78,176.949 1244.31,176.528 1244.84,176.018 1245.37,175.386 1245.9,174.615 1246.43,173.697 1246.96,172.639 1247.49,171.461 1248.02,170.191 1248.55,168.866 1249.08,167.525 1249.6,166.21 1250.13,164.962 1250.66,163.817 1251.19,162.804 1251.72,161.944 1252.25,161.25 1252.78,160.726 1253.31,160.366 1253.84,160.157 1254.37,160.079 1254.9,160.107 1255.43,160.216 1255.95,160.379 1256.48,160.572 1257.01,160.772 1257.54,160.965 1258.07,161.14 1258.6,161.293 1259.13,161.429 1259.66,161.555 1260.19,161.686 1260.72,161.84 1261.25,162.038 1261.78,162.302 1262.31,162.651 1262.83,163.106 1263.36,163.681 1263.89,164.388 1264.42,165.231 1264.95,166.214 1265.48,167.331 1266.01,168.574 1266.54,169.933 1267.07,171.393 1267.6,172.938 1268.13,174.553 1268.66,176.226 1269.18,177.943 1269.71,179.696 1270.24,181.481 1270.77,183.297 1271.3,185.147 1271.83,187.037 1272.36,188.978 1272.89,190.981 1273.42,193.059 1273.95,195.225 1274.48,197.492 1275.01,199.87 1275.53,202.365 1276.06,204.982 1276.59,207.722 1277.12,210.58 1277.65,213.549 1278.18,216.618 1278.71,219.775 1279.24,223.004 1279.77,226.29 1280.3,229.617 1280.83,232.972 1281.36,236.341 1281.89,239.715 1282.41,243.088 1282.94,246.457 1283.47,249.823 1284,253.19 1284.53,256.565 1285.06,259.958 1285.59,263.38 1286.12,266.843 1286.65,270.359 1287.18,273.94 1287.71,277.596 1288.24,281.333 1288.76,285.157 1289.29,289.07 1289.82,293.071 1290.35,297.157 1290.88,301.321 1291.41,305.555 1291.94,309.85 1292.47,314.194 1293,318.578 1293.53,322.991 1294.06,327.422 1294.59,331.864 1295.11,336.309 1295.64,340.752 1296.17,345.189 1296.7,349.618 1297.23,354.04 1297.76,358.453 1298.29,362.861 1298.82,367.264 1299.35,371.665 1299.88,376.065 1300.41,380.467 1300.94,384.872 1301.47,389.28 1301.99,393.692 1302.52,398.108 1303.05,402.527 1303.58,406.95 1304.11,411.376 1304.64,415.805 1305.17,420.239 1305.7,424.679 1306.23,429.126 1306.76,433.582 1307.29,438.049 1307.82,442.529 1308.34,447.025 1308.87,451.535 1309.4,456.061 1309.93,460.599 1310.46,465.147 1310.99,469.699 1311.52,474.248 1312.05,478.786 1312.58,483.303 1313.11,487.789 1313.64,492.233 1314.17,496.623 1314.69,500.951 1315.22,505.208 1315.75,509.388 1316.28,513.487 1316.81,517.504 1317.34,521.441 1317.87,525.302 1318.4,529.095 1318.93,532.83 1319.46,536.517 1319.99,540.169 1320.52,543.798 1321.05,547.415 1321.57,551.03 1322.1,554.65 1322.63,558.279 1323.16,561.92 1323.69,565.568 1324.22,569.219 1324.75,572.862 1325.28,576.485 1325.81,580.075 1326.34,583.615 1326.87,587.091 1327.4,590.487 1327.92,593.789 1328.45,596.987 1328.98,600.074 1329.51,603.044 1330.04,605.899 1330.57,608.642 1331.1,611.28 1331.63,613.823 1332.16,616.282 1332.69,618.671 1333.22,621.004 1333.75,623.291 1334.27,625.543 1334.8,627.766 1335.33,629.965 1335.86,632.137 1336.39,634.28 1336.92,636.385 1337.45,638.439 1337.98,640.429 1338.51,642.341 1339.04,644.158 1339.57,645.867 1340.1,647.455 1340.63,648.914 1341.15,650.241 1341.68,651.435 1342.21,652.502 1342.74,653.453 1343.27,654.304 1343.8,655.072 1344.33,655.778 1344.86,656.443 1345.39,657.089 1345.92,657.734 1346.45,658.391 1346.98,659.072 1347.5,659.779 1348.03,660.508 1348.56,661.251 1349.09,661.992 1349.62,662.71 1350.15,663.38 1350.68,663.976 1351.21,664.471 1351.74,664.841 1352.27,665.066 1352.8,665.131 1353.33,665.032 1353.85,664.77 1354.38,664.357 1354.91,663.814 1355.44,663.17 1355.97,662.461 1356.5,661.726 1357.03,661.008 1357.56,660.346 1358.09,659.777 1358.62,659.33 1359.15,659.026 1359.68,658.871 1360.21,658.861 1360.73,658.977 1361.26,659.188 1361.79,659.453 1362.32,659.722 1362.85,659.939 1363.38,660.052 1363.91,660.011 1364.44,659.777 1364.97,659.325 1365.5,658.652 1366.03,657.777 1366.56,656.744 1367.08,655.625 1367.61,654.516 1368.14,653.539 1368.67,652.832 1369.2,652.548 1369.73,652.843 1370.26,653.868 1370.79,655.761 1371.32,658.635 1371.85,662.565 1372.38,667.584 1372.91,673.669 1373.43,680.737 1373.96,688.643 1374.49,697.172 1375.02,706.047 1375.55,714.933 1376.08,723.439 1376.61,731.137 1377.14,737.569 1377.67,742.266 1378.2,744.766 1378.73,744.631 1379.26,741.463 1379.79,734.927 1380.31,724.764 1380.84,710.803 1381.37,692.978 1381.9,671.327 1382.43,646.004 1382.96,617.27 1383.49,585.493 1384.02,551.138 1384.55,514.75 1385.08,476.941 1385.61,438.37" fill="none" stroke-width="0.5" stroke="#0071bc" stroke-linejoin="round" stroke-linecap="butt"/>
  </g>
 </g>
</svg>
